<svg width="128" height="44" viewBox="0 0 128 44" fill="none" xmlns="http://www.w3.org/2000/svg">
<rect x="1.5" y="1.5" width="125" height="41" rx="20.5" fill="#E8D9C2"/>
<rect x="1.5" y="1.5" width="125" height="41" rx="20.5" stroke="white" stroke-width="3"/>
<path d="M18.1324 26.016H13.9404L13.2684 28H10.4044L14.4684 16.768H17.6364L21.7004 28H18.8044L18.1324 26.016ZM17.4284 23.904L16.0364 19.792L14.6604 23.904H17.4284ZM28.3773 18.976C29.4226 18.976 30.2546 19.3173 30.8733 20C31.5026 20.672 31.8173 21.6 31.8173 22.784V28H29.0973V23.152C29.0973 22.5547 28.9426 22.0907 28.6333 21.76C28.324 21.4293 27.908 21.264 27.3853 21.264C26.8626 21.264 26.4466 21.4293 26.1373 21.76C25.828 22.0907 25.6733 22.5547 25.6733 23.152V28H22.9373V19.072H25.6733V20.256C25.9506 19.8613 26.324 19.552 26.7933 19.328C27.2626 19.0933 27.7906 18.976 28.3773 18.976ZM36.4546 20.336C36.7106 19.92 37.0786 19.584 37.5586 19.328C38.0386 19.072 38.5879 18.944 39.2066 18.944C39.9426 18.944 40.6092 19.1307 41.2066 19.504C41.8039 19.8773 42.2732 20.4107 42.6146 21.104C42.9666 21.7973 43.1426 22.6027 43.1426 23.52C43.1426 24.4373 42.9666 25.248 42.6146 25.952C42.2732 26.6453 41.8039 27.184 41.2066 27.568C40.6092 27.9413 39.9426 28.128 39.2066 28.128C38.5772 28.128 38.0279 28.0053 37.5586 27.76C37.0892 27.504 36.7212 27.168 36.4546 26.752V28H33.7186V16.16H36.4546V20.336ZM40.3586 23.52C40.3586 22.8373 40.1666 22.304 39.7826 21.92C39.4092 21.5253 38.9452 21.328 38.3906 21.328C37.8466 21.328 37.3826 21.5253 36.9986 21.92C36.6252 22.3147 36.4386 22.8533 36.4386 23.536C36.4386 24.2187 36.6252 24.7573 36.9986 25.152C37.3826 25.5467 37.8466 25.744 38.3906 25.744C38.9346 25.744 39.3986 25.5467 39.7826 25.152C40.1666 24.7467 40.3586 24.2027 40.3586 23.52ZM52.9939 23.392C52.9939 23.648 52.9779 23.9147 52.9459 24.192H46.7539C46.7966 24.7467 46.9726 25.1733 47.2819 25.472C47.6019 25.76 47.9913 25.904 48.4499 25.904C49.1326 25.904 49.6073 25.616 49.8739 25.04H52.7859C52.6366 25.6267 52.3646 26.1547 51.9699 26.624C51.5859 27.0933 51.1006 27.4613 50.5139 27.728C49.9273 27.9947 49.2713 28.128 48.5459 28.128C47.6713 28.128 46.8926 27.9413 46.2099 27.568C45.5273 27.1947 44.9939 26.6613 44.6099 25.968C44.2259 25.2747 44.0339 24.464 44.0339 23.536C44.0339 22.608 44.2206 21.7973 44.5939 21.104C44.9779 20.4107 45.5113 19.8773 46.1939 19.504C46.8766 19.1307 47.6606 18.944 48.5459 18.944C49.4099 18.944 50.1779 19.1253 50.8499 19.488C51.5219 19.8507 52.0446 20.368 52.4179 21.04C52.8019 21.712 52.9939 22.496 52.9939 23.392ZM50.1939 22.672C50.1939 22.2027 50.0339 21.8293 49.7139 21.552C49.3939 21.2747 48.9939 21.136 48.5139 21.136C48.0553 21.136 47.6659 21.2693 47.3459 21.536C47.0366 21.8027 46.8446 22.1813 46.7699 22.672H50.1939ZM58.9173 21.344H57.4453V28H54.7093V21.344H53.7173V19.072H54.7093V18.816C54.7093 17.7173 55.024 16.8853 55.6533 16.32C56.2826 15.744 57.2053 15.456 58.4213 15.456C58.624 15.456 58.7733 15.4613 58.8693 15.472V17.792C58.3466 17.76 57.9786 17.8347 57.7653 18.016C57.552 18.1973 57.4453 18.5227 57.4453 18.992V19.072H58.9173V21.344ZM59.6589 23.52C59.6589 22.6027 59.8296 21.7973 60.1709 21.104C60.5229 20.4107 60.9976 19.8773 61.5949 19.504C62.1923 19.1307 62.8589 18.944 63.5949 18.944C64.2243 18.944 64.7736 19.072 65.2429 19.328C65.7229 19.584 66.0909 19.92 66.3469 20.336V19.072H69.0829V28H66.3469V26.736C66.0803 27.152 65.7069 27.488 65.2269 27.744C64.7576 28 64.2083 28.128 63.5789 28.128C62.8536 28.128 62.1923 27.9413 61.5949 27.568C60.9976 27.184 60.5229 26.6453 60.1709 25.952C59.8296 25.248 59.6589 24.4373 59.6589 23.52ZM66.3469 23.536C66.3469 22.8533 66.1549 22.3147 65.7709 21.92C65.3976 21.5253 64.9389 21.328 64.3949 21.328C63.8509 21.328 63.3869 21.5253 63.0029 21.92C62.6296 22.304 62.4429 22.8373 62.4429 23.52C62.4429 24.2027 62.6296 24.7467 63.0029 25.152C63.3869 25.5467 63.8509 25.744 64.3949 25.744C64.9389 25.744 65.3976 25.5467 65.7709 25.152C66.1549 24.7573 66.3469 24.2187 66.3469 23.536ZM73.7983 16.16V28H71.0623V16.16H73.7983ZM77.1571 18.144C76.6771 18.144 76.2824 18.0053 75.9731 17.728C75.6744 17.44 75.5251 17.088 75.5251 16.672C75.5251 16.2453 75.6744 15.8933 75.9731 15.616C76.2824 15.328 76.6771 15.184 77.1571 15.184C77.6264 15.184 78.0104 15.328 78.3091 15.616C78.6184 15.8933 78.7731 16.2453 78.7731 16.672C78.7731 17.088 78.6184 17.44 78.3091 17.728C78.0104 18.0053 77.6264 18.144 77.1571 18.144ZM78.5171 19.072V28H75.7811V19.072H78.5171ZM85.9398 18.976C86.9851 18.976 87.8171 19.3173 88.4358 20C89.0651 20.672 89.3798 21.6 89.3798 22.784V28H86.6598V23.152C86.6598 22.5547 86.5051 22.0907 86.1958 21.76C85.8865 21.4293 85.4705 21.264 84.9478 21.264C84.4251 21.264 84.0091 21.4293 83.6998 21.76C83.3905 22.0907 83.2358 22.5547 83.2358 23.152V28H80.4998V19.072H83.2358V20.256C83.5131 19.8613 83.8865 19.552 84.3558 19.328C84.8251 19.0933 85.3531 18.976 85.9398 18.976ZM94.6731 18.944C95.3024 18.944 95.8517 19.072 96.3211 19.328C96.8011 19.584 97.1691 19.92 97.4251 20.336V19.072H100.161V27.984C100.161 28.8053 99.9957 29.5467 99.6651 30.208C99.3451 30.88 98.8491 31.4133 98.1771 31.808C97.5157 32.2027 96.6891 32.4 95.6971 32.4C94.3744 32.4 93.3024 32.0853 92.4811 31.456C91.6597 30.8373 91.1904 29.9947 91.0731 28.928H93.7771C93.8624 29.2693 94.0651 29.536 94.3851 29.728C94.7051 29.9307 95.0997 30.032 95.5691 30.032C96.1344 30.032 96.5824 29.8667 96.9131 29.536C97.2544 29.216 97.4251 28.6987 97.4251 27.984V26.72C97.1584 27.136 96.7904 27.4773 96.3211 27.744C95.8517 28 95.3024 28.128 94.6731 28.128C93.9371 28.128 93.2704 27.9413 92.6731 27.568C92.0757 27.184 91.6011 26.6453 91.2491 25.952C90.9077 25.248 90.7371 24.4373 90.7371 23.52C90.7371 22.6027 90.9077 21.7973 91.2491 21.104C91.6011 20.4107 92.0757 19.8773 92.6731 19.504C93.2704 19.1307 93.9371 18.944 94.6731 18.944ZM97.4251 23.536C97.4251 22.8533 97.2331 22.3147 96.8491 21.92C96.4757 21.5253 96.0171 21.328 95.4731 21.328C94.9291 21.328 94.4651 21.5253 94.0811 21.92C93.7077 22.304 93.5211 22.8373 93.5211 23.52C93.5211 24.2027 93.7077 24.7467 94.0811 25.152C94.4651 25.5467 94.9291 25.744 95.4731 25.744C96.0171 25.744 96.4757 25.5467 96.8491 25.152C97.2331 24.7573 97.4251 24.2187 97.4251 23.536ZM110.556 23.392C110.556 23.648 110.54 23.9147 110.508 24.192H104.316C104.359 24.7467 104.535 25.1733 104.844 25.472C105.164 25.76 105.554 25.904 106.012 25.904C106.695 25.904 107.17 25.616 107.436 25.04H110.348C110.199 25.6267 109.927 26.1547 109.532 26.624C109.148 27.0933 108.663 27.4613 108.076 27.728C107.49 27.9947 106.834 28.128 106.108 28.128C105.234 28.128 104.455 27.9413 103.772 27.568C103.09 27.1947 102.556 26.6613 102.172 25.968C101.788 25.2747 101.596 24.464 101.596 23.536C101.596 22.608 101.783 21.7973 102.156 21.104C102.54 20.4107 103.074 19.8773 103.756 19.504C104.439 19.1307 105.223 18.944 106.108 18.944C106.972 18.944 107.74 19.1253 108.412 19.488C109.084 19.8507 109.607 20.368 109.98 21.04C110.364 21.712 110.556 22.496 110.556 23.392ZM107.756 22.672C107.756 22.2027 107.596 21.8293 107.276 21.552C106.956 21.2747 106.556 21.136 106.076 21.136C105.618 21.136 105.228 21.2693 104.908 21.536C104.599 21.8027 104.407 22.1813 104.332 22.672H107.756ZM114.736 20.56C115.056 20.0693 115.456 19.6853 115.936 19.408C116.416 19.12 116.949 18.976 117.536 18.976V21.872H116.784C116.101 21.872 115.589 22.0213 115.248 22.32C114.906 22.608 114.736 23.12 114.736 23.856V28H112V19.072H114.736V20.56Z" fill="black"/>
</svg>
