<svg width="224" height="56" viewBox="0 0 224 56" fill="none" xmlns="http://www.w3.org/2000/svg">
<rect x="1.5" y="1.5" width="221" height="53" rx="26.5" fill="#E8D9C2"/>
<rect x="1.5" y="1.5" width="221" height="53" rx="26.5" stroke="white" stroke-width="3"/>
<path d="M33.0607 15.98V19.328H22.4407V26.708H30.7207V30.056H22.4407V41H18.3367V15.98H33.0607ZM38.9521 18.536C38.2081 18.536 37.5841 18.284 37.0801 17.78C36.5761 17.276 36.3241 16.652 36.3241 15.908C36.3241 15.164 36.5761 14.54 37.0801 14.036C37.5841 13.532 38.2081 13.28 38.9521 13.28C39.6721 13.28 40.2841 13.532 40.7881 14.036C41.2921 14.54 41.5441 15.164 41.5441 15.908C41.5441 16.652 41.2921 17.276 40.7881 17.78C40.2841 18.284 39.6721 18.536 38.9521 18.536ZM40.9681 21.164V41H36.8641V21.164H40.9681ZM56.3643 20.84C57.9243 20.84 59.3163 21.164 60.5403 21.812C61.7883 22.46 62.7603 23.42 63.4563 24.692C64.1523 25.964 64.5003 27.5 64.5003 29.3V41H60.4323V29.912C60.4323 28.136 59.9883 26.78 59.1003 25.844C58.2123 24.884 57.0003 24.404 55.4643 24.404C53.9283 24.404 52.7043 24.884 51.7923 25.844C50.9043 26.78 50.4603 28.136 50.4603 29.912V41H46.3563V21.164H50.4603V23.432C51.1323 22.616 51.9843 21.98 53.0163 21.524C54.0723 21.068 55.1883 20.84 56.3643 20.84ZM68.3672 30.992C68.3672 29 68.7752 27.236 69.5912 25.7C70.4312 24.164 71.5592 22.976 72.9752 22.136C74.4152 21.272 76.0112 20.84 77.7632 20.84C79.0592 20.84 80.3312 21.128 81.5792 21.704C82.8512 22.256 83.8592 23 84.6032 23.936V14.36H88.7432V41H84.6032V38.012C83.9312 38.972 82.9952 39.764 81.7952 40.388C80.6192 41.012 79.2632 41.324 77.7272 41.324C75.9992 41.324 74.4152 40.892 72.9752 40.028C71.5592 39.14 70.4312 37.916 69.5912 36.356C68.7752 34.772 68.3672 32.984 68.3672 30.992ZM84.6032 31.064C84.6032 29.696 84.3152 28.508 83.7392 27.5C83.1872 26.492 82.4552 25.724 81.5432 25.196C80.6312 24.668 79.6472 24.404 78.5912 24.404C77.5352 24.404 76.5512 24.668 75.6392 25.196C74.7272 25.7 73.9832 26.456 73.4072 27.464C72.8552 28.448 72.5792 29.624 72.5792 30.992C72.5792 32.36 72.8552 33.56 73.4072 34.592C73.9832 35.624 74.7272 36.416 75.6392 36.968C76.5752 37.496 77.5592 37.76 78.5912 37.76C79.6472 37.76 80.6312 37.496 81.5432 36.968C82.4552 36.44 83.1872 35.672 83.7392 34.664C84.3152 33.632 84.6032 32.432 84.6032 31.064ZM121.665 30.596C121.665 31.34 121.617 32.012 121.521 32.612H106.365C106.485 34.196 107.073 35.468 108.129 36.428C109.185 37.388 110.481 37.868 112.017 37.868C114.225 37.868 115.785 36.944 116.697 35.096H121.125C120.525 36.92 119.433 38.42 117.849 39.596C116.289 40.748 114.345 41.324 112.017 41.324C110.121 41.324 108.417 40.904 106.905 40.064C105.417 39.2 104.241 38 103.377 36.464C102.537 34.904 102.117 33.104 102.117 31.064C102.117 29.024 102.525 27.236 103.341 25.7C104.181 24.14 105.345 22.94 106.833 22.1C108.345 21.26 110.073 20.84 112.017 20.84C113.889 20.84 115.557 21.248 117.021 22.064C118.485 22.88 119.625 24.032 120.441 25.52C121.257 26.984 121.665 28.676 121.665 30.596ZM117.381 29.3C117.357 27.788 116.817 26.576 115.761 25.664C114.705 24.752 113.397 24.296 111.837 24.296C110.421 24.296 109.209 24.752 108.201 25.664C107.193 26.552 106.593 27.764 106.401 29.3H117.381ZM130.492 24.512V35.492C130.492 36.236 130.66 36.776 130.996 37.112C131.356 37.424 131.956 37.58 132.796 37.58H135.316V41H132.076C130.228 41 128.812 40.568 127.828 39.704C126.844 38.84 126.352 37.436 126.352 35.492V24.512H124.012V21.164H126.352V16.232H130.492V21.164H135.316V24.512H130.492ZM155.65 41.324C154.09 41.324 152.686 41.048 151.438 40.496C150.214 39.92 149.242 39.152 148.522 38.192C147.802 37.208 147.418 36.116 147.37 34.916H151.618C151.69 35.756 152.086 36.464 152.806 37.04C153.55 37.592 154.474 37.868 155.578 37.868C156.73 37.868 157.618 37.652 158.242 37.22C158.89 36.764 159.214 36.188 159.214 35.492C159.214 34.748 158.854 34.196 158.134 33.836C157.438 33.476 156.322 33.08 154.786 32.648C153.298 32.24 152.086 31.844 151.15 31.46C150.214 31.076 149.398 30.488 148.702 29.696C148.03 28.904 147.694 27.86 147.694 26.564C147.694 25.508 148.006 24.548 148.63 23.684C149.254 22.796 150.142 22.1 151.294 21.596C152.47 21.092 153.814 20.84 155.326 20.84C157.582 20.84 159.394 21.416 160.762 22.568C162.154 23.696 162.898 25.244 162.994 27.212H158.89C158.818 26.324 158.458 25.616 157.81 25.088C157.162 24.56 156.286 24.296 155.182 24.296C154.102 24.296 153.274 24.5 152.698 24.908C152.122 25.316 151.834 25.856 151.834 26.528C151.834 27.056 152.026 27.5 152.41 27.86C152.794 28.22 153.262 28.508 153.814 28.724C154.366 28.916 155.182 29.168 156.262 29.48C157.702 29.864 158.878 30.26 159.79 30.668C160.726 31.052 161.53 31.628 162.202 32.396C162.874 33.164 163.222 34.184 163.246 35.456C163.246 36.584 162.934 37.592 162.31 38.48C161.686 39.368 160.798 40.064 159.646 40.568C158.518 41.072 157.186 41.324 155.65 41.324ZM171.784 24.08C172.48 23.168 173.428 22.4 174.628 21.776C175.828 21.152 177.184 20.84 178.696 20.84C180.424 20.84 181.996 21.272 183.412 22.136C184.852 22.976 185.98 24.164 186.796 25.7C187.612 27.236 188.02 29 188.02 30.992C188.02 32.984 187.612 34.772 186.796 36.356C185.98 37.916 184.852 39.14 183.412 40.028C181.996 40.892 180.424 41.324 178.696 41.324C177.184 41.324 175.84 41.024 174.664 40.424C173.488 39.8 172.528 39.032 171.784 38.12V50.432H167.68V21.164H171.784V24.08ZM183.844 30.992C183.844 29.624 183.556 28.448 182.98 27.464C182.428 26.456 181.684 25.7 180.748 25.196C179.836 24.668 178.852 24.404 177.796 24.404C176.764 24.404 175.78 24.668 174.844 25.196C173.932 25.724 173.188 26.492 172.612 27.5C172.06 28.508 171.784 29.696 171.784 31.064C171.784 32.432 172.06 33.632 172.612 34.664C173.188 35.672 173.932 36.44 174.844 36.968C175.78 37.496 176.764 37.76 177.796 37.76C178.852 37.76 179.836 37.496 180.748 36.968C181.684 36.416 182.428 35.624 182.98 34.592C183.556 33.56 183.844 32.36 183.844 30.992ZM194.167 18.536C193.423 18.536 192.799 18.284 192.295 17.78C191.791 17.276 191.539 16.652 191.539 15.908C191.539 15.164 191.791 14.54 192.295 14.036C192.799 13.532 193.423 13.28 194.167 13.28C194.887 13.28 195.499 13.532 196.003 14.036C196.507 14.54 196.759 15.164 196.759 15.908C196.759 16.652 196.507 17.276 196.003 17.78C195.499 18.284 194.887 18.536 194.167 18.536ZM196.183 21.164V41H192.079V21.164H196.183ZM205.675 14.36V41H201.571V14.36H205.675Z" fill="black"/>
</svg>
