<svg width="393" height="54" viewBox="0 0 393 54" fill="none" xmlns="http://www.w3.org/2000/svg">
<rect width="393" height="54" fill="white"/>
<g clip-path="url(#clip0_71_275)">
<path d="M61.2493 41.5295V31.5295H69.2493V41.5295C69.2493 42.6295 70.1493 43.5295 71.2493 43.5295H77.2493C78.3493 43.5295 79.2493 42.6295 79.2493 41.5295V27.5295H82.6493C83.5693 27.5295 84.0093 26.3895 83.3093 25.7895L66.5893 10.7295C65.8293 10.0495 64.6693 10.0495 63.9093 10.7295L47.1893 25.7895C46.5093 26.3895 46.9293 27.5295 47.8493 27.5295H51.2493V41.5295C51.2493 42.6295 52.1493 43.5295 53.2493 43.5295H59.2493C60.3493 43.5295 61.2493 42.6295 61.2493 41.5295Z" fill="black"/>
</g>
<g clip-path="url(#clip1_71_275)">
<path fill-rule="evenodd" clip-rule="evenodd" d="M135.3 21.007L134.043 32.32C133.862 33.9342 134.255 35.5605 135.154 36.9138C136.052 38.2671 137.398 39.2609 138.956 39.7211C140.514 40.1813 142.184 40.0785 143.673 39.4306C145.163 38.7828 146.376 37.6313 147.102 36.178L148.191 34H157.191L158.28 36.178C159.005 37.6313 160.219 38.7828 161.709 39.4306C163.198 40.0785 164.868 40.1813 166.426 39.7211C167.984 39.2609 169.33 38.2671 170.228 36.9138C171.126 35.5605 171.52 33.9342 171.339 32.32L170.079 21.007C169.835 18.8064 168.788 16.773 167.138 15.2958C165.489 13.8186 163.353 13.0012 161.139 13H144.249C142.034 12.9998 139.896 13.8165 138.246 15.2938C136.595 16.7712 135.547 18.8054 135.303 21.007H135.3ZM144.816 18.625C145.851 18.625 146.691 19.465 146.691 20.5V22.126H148.317C148.814 22.126 149.291 22.3235 149.643 22.6752C149.994 23.0268 150.192 23.5037 150.192 24.001C150.192 24.4983 149.994 24.9752 149.643 25.3268C149.291 25.6785 148.814 25.876 148.317 25.876H146.691V27.499C146.691 27.9963 146.493 28.4732 146.142 28.8248C145.79 29.1765 145.313 29.374 144.816 29.374C144.319 29.374 143.842 29.1765 143.49 28.8248C143.139 28.4732 142.941 27.9963 142.941 27.499V25.876H141.315C140.818 25.876 140.341 25.6785 139.989 25.3268C139.638 24.9752 139.44 24.4983 139.44 24.001C139.44 23.5037 139.638 23.0268 139.989 22.6752C140.341 22.3235 140.818 22.126 141.315 22.126H142.941V20.5C142.941 19.465 143.781 18.625 144.816 18.625ZM159.486 27.751C159.983 27.751 160.46 27.5535 160.812 27.2018C161.163 26.8502 161.361 26.3733 161.361 25.876C161.361 25.3787 161.163 24.9018 160.812 24.5502C160.46 24.1985 159.983 24.001 159.486 24.001C158.989 24.001 158.512 24.1985 158.16 24.5502C157.809 24.9018 157.611 25.3787 157.611 25.876C157.611 26.3733 157.809 26.8502 158.16 27.2018C158.512 27.5535 158.989 27.751 159.486 27.751ZM165.114 21.226C165.114 21.7233 164.916 22.2002 164.565 22.5518C164.213 22.9035 163.736 23.101 163.239 23.101C162.742 23.101 162.265 22.9035 161.913 22.5518C161.562 22.2002 161.364 21.7233 161.364 21.226C161.364 20.7287 161.562 20.2518 161.913 19.9002C162.265 19.5485 162.742 19.351 163.239 19.351C163.736 19.351 164.213 19.5485 164.565 19.9002C164.916 20.2518 165.114 20.7287 165.114 21.226Z" fill="black"/>
</g>
<path fill-rule="evenodd" clip-rule="evenodd" d="M230.889 18.1111C230.889 16.2251 231.638 14.4164 232.972 13.0828C234.305 11.7492 236.114 11 238 11C239.886 11 241.695 11.7492 243.028 13.0828C244.362 14.4164 245.111 16.2251 245.111 18.1111C245.111 19.9971 244.362 21.8058 243.028 23.1394C241.695 24.473 239.886 25.2222 238 25.2222C236.114 25.2222 234.305 24.473 232.972 23.1394C231.638 21.8058 230.889 19.9971 230.889 18.1111ZM230.889 28.7778C228.531 28.7778 226.27 29.7143 224.603 31.3813C222.937 33.0483 222 35.3092 222 37.6667C222 39.0812 222.562 40.4377 223.562 41.4379C224.562 42.4381 225.919 43 227.333 43H248.667C250.081 43 251.438 42.4381 252.438 41.4379C253.438 40.4377 254 39.0812 254 37.6667C254 35.3092 253.063 33.0483 251.397 31.3813C249.73 29.7143 247.469 28.7778 245.111 28.7778H230.889Z" fill="black"/>
<g clip-path="url(#clip2_71_275)">
<path d="M335.97 11.3789C332.258 11.3789 328.26 12.1404 325.5 14.2344C322.74 12.1404 318.742 11.3789 315.03 11.3789C312.27 11.3789 309.338 11.7977 306.882 12.8828C305.493 13.511 304.56 14.8626 304.56 16.4045V37.8777C304.56 40.3524 306.882 42.1799 309.281 41.5707C311.146 41.0948 313.126 40.8854 315.03 40.8854C318 40.8854 321.16 41.3804 323.711 42.6368C324.853 43.2079 326.147 43.2079 327.27 42.6368C329.821 41.3613 332.981 40.8854 335.951 40.8854C337.855 40.8854 339.834 41.0948 341.7 41.5707C344.099 42.1989 346.421 40.3714 346.421 37.8777V16.4045C346.421 14.8626 345.488 13.511 344.099 12.8828C341.662 11.7977 338.73 11.3789 335.97 11.3789ZM342.633 35.6123C342.633 36.8116 341.529 37.6873 340.348 37.4779C338.921 37.2114 337.436 37.0972 335.97 37.0972C332.734 37.0972 328.07 38.3345 325.5 39.9526V18.0417C328.07 16.4236 332.734 15.1862 335.97 15.1862C337.721 15.1862 339.454 15.3575 341.11 15.7192C341.986 15.9096 342.633 16.6901 342.633 17.5848V35.6123Z" fill="black"/>
<path d="M329.269 23.7716C328.66 23.7716 328.108 23.3909 327.918 22.7817C327.67 22.0393 328.089 21.2207 328.831 20.9923C331.763 20.0405 335.551 19.7359 339.035 20.1357C339.815 20.2309 340.387 20.9352 340.291 21.7157C340.196 22.4962 339.492 23.0673 338.711 22.9721C335.627 22.6104 332.258 22.896 329.707 23.7145C329.555 23.7336 329.402 23.7716 329.269 23.7716ZM329.269 28.8353C328.66 28.8353 328.108 28.4546 327.918 27.8454C327.67 27.103 328.089 26.2844 328.831 26.056C331.744 25.1042 335.551 24.7996 339.035 25.1994C339.815 25.2946 340.387 25.9989 340.291 26.7794C340.196 27.5599 339.492 28.131 338.711 28.0358C335.627 27.6741 332.258 27.9597 329.707 28.7782C329.564 28.8142 329.417 28.8333 329.269 28.8353ZM329.269 33.899C328.66 33.899 328.108 33.5183 327.918 32.9091C327.67 32.1667 328.089 31.3481 328.831 31.1197C331.744 30.1679 335.551 29.8633 339.035 30.2631C339.815 30.3582 340.387 31.0626 340.291 31.8431C340.196 32.6236 339.492 33.1756 338.711 33.0995C335.627 32.7378 332.258 33.0234 329.707 33.8419C329.564 33.8779 329.417 33.897 329.269 33.899Z" fill="black"/>
</g>
<defs>
<clipPath id="clip0_71_275">
<rect width="38" height="34" fill="white" transform="translate(46 10)"/>
</clipPath>
<clipPath id="clip1_71_275">
<rect width="38" height="28" fill="white" transform="translate(134 13)"/>
</clipPath>
<clipPath id="clip2_71_275">
<rect width="43" height="32.25" fill="white" transform="translate(304 10.875)"/>
</clipPath>
</defs>
</svg>
