<svg width="116" height="44" viewBox="0 0 116 44" fill="none" xmlns="http://www.w3.org/2000/svg">
<rect x="1.5" y="1.5" width="113" height="41" rx="20.5" fill="#E8D9C2"/>
<rect x="1.5" y="1.5" width="113" height="41" rx="20.5" stroke="white" stroke-width="3"/>
<path d="M19.7786 20.384C19.7786 21.0347 19.6292 21.632 19.3306 22.176C19.0319 22.7093 18.5732 23.1413 17.9546 23.472C17.3359 23.8027 16.5679 23.968 15.6506 23.968H13.9546V28H11.2186V16.768H15.6506C16.5466 16.768 17.3039 16.9227 17.9226 17.232C18.5412 17.5413 19.0052 17.968 19.3146 18.512C19.6239 19.056 19.7786 19.68 19.7786 20.384ZM15.4426 21.792C15.9652 21.792 16.3546 21.6693 16.6106 21.424C16.8666 21.1787 16.9946 20.832 16.9946 20.384C16.9946 19.936 16.8666 19.5893 16.6106 19.344C16.3546 19.0987 15.9652 18.976 15.4426 18.976H13.9546V21.792H15.4426ZM23.9389 20.56C24.2589 20.0693 24.6589 19.6853 25.1389 19.408C25.6189 19.12 26.1523 18.976 26.7389 18.976V21.872H25.9869C25.3043 21.872 24.7923 22.0213 24.4509 22.32C24.1096 22.608 23.9389 23.12 23.9389 23.856V28H21.2029V19.072H23.9389V20.56ZM35.6467 20.448C36.3614 21.28 36.7187 22.3093 36.7187 23.536C36.7187 24.4533 36.5107 25.264 36.0947 25.968C35.6894 26.6613 35.1294 27.1947 34.4147 27.568C33.7107 27.9413 32.9214 28.128 32.0467 28.128C31.012 28.128 30.1054 27.872 29.3267 27.36L28.7347 28H27.2627L28.5107 26.64C27.796 25.808 27.4387 24.7733 27.4387 23.536C27.4387 22.6187 27.6414 21.8133 28.0467 21.12C28.452 20.416 29.0067 19.8773 29.7107 19.504C30.4147 19.1307 31.204 18.944 32.0787 18.944C33.1347 18.944 34.052 19.2053 34.8307 19.728L35.4387 19.072H36.9107L35.6467 20.448ZM30.2227 23.536C30.2227 23.9307 30.2814 24.2773 30.3987 24.576L33.1027 21.632C32.8147 21.4187 32.4734 21.312 32.0787 21.312C31.5454 21.312 31.1027 21.504 30.7507 21.888C30.3987 22.2613 30.2227 22.8107 30.2227 23.536ZM33.9347 23.536C33.9347 23.152 33.876 22.8107 33.7587 22.512L31.0547 25.472C31.3427 25.664 31.6734 25.76 32.0467 25.76C32.5694 25.76 33.012 25.568 33.3747 25.184C33.748 24.8 33.9347 24.2507 33.9347 23.536ZM42.1252 25.44L44.0612 19.072H46.9732L43.8052 28H40.4292L37.2612 19.072H40.1892L42.1252 25.44ZM54.2514 16.16V28H51.5154V16.16H54.2514ZM65.3542 19.072L59.7542 32.24H56.8102L58.8582 27.696L55.2262 19.072H58.2822L60.3462 24.656L62.3942 19.072H65.3542ZM71.7996 28L69.0796 24.256V28H66.3436V16.16H69.0796V22.704L71.7836 19.072H75.1596L71.4476 23.552L75.1916 28H71.7996ZM81.6902 28L78.9702 24.256V28H76.2342V16.16H78.9702V22.704L81.6742 19.072H85.0502L81.3382 23.552L85.0822 28H81.6902ZM94.5408 23.392C94.5408 23.648 94.5248 23.9147 94.4928 24.192H88.3008C88.3435 24.7467 88.5195 25.1733 88.8288 25.472C89.1488 25.76 89.5381 25.904 89.9968 25.904C90.6795 25.904 91.1541 25.616 91.4208 25.04H94.3328C94.1835 25.6267 93.9115 26.1547 93.5168 26.624C93.1328 27.0933 92.6475 27.4613 92.0608 27.728C91.4741 27.9947 90.8181 28.128 90.0928 28.128C89.2181 28.128 88.4395 27.9413 87.7568 27.568C87.0741 27.1947 86.5408 26.6613 86.1568 25.968C85.7728 25.2747 85.5808 24.464 85.5808 23.536C85.5808 22.608 85.7675 21.7973 86.1408 21.104C86.5248 20.4107 87.0581 19.8773 87.7408 19.504C88.4235 19.1307 89.2075 18.944 90.0928 18.944C90.9568 18.944 91.7248 19.1253 92.3968 19.488C93.0688 19.8507 93.5915 20.368 93.9648 21.04C94.3488 21.712 94.5408 22.496 94.5408 23.392ZM91.7408 22.672C91.7408 22.2027 91.5808 21.8293 91.2608 21.552C90.9408 21.2747 90.5408 21.136 90.0608 21.136C89.6021 21.136 89.2128 21.2693 88.8928 21.536C88.5835 21.8027 88.3915 22.1813 88.3168 22.672H91.7408ZM101.424 18.976C102.47 18.976 103.302 19.3173 103.92 20C104.55 20.672 104.864 21.6 104.864 22.784V28H102.144V23.152C102.144 22.5547 101.99 22.0907 101.68 21.76C101.371 21.4293 100.955 21.264 100.432 21.264C99.9095 21.264 99.4935 21.4293 99.1842 21.76C98.8749 22.0907 98.7202 22.5547 98.7202 23.152V28H95.9842V19.072H98.7202V20.256C98.9975 19.8613 99.3709 19.552 99.8402 19.328C100.31 19.0933 100.838 18.976 101.424 18.976Z" fill="black"/>
</svg>
