<svg width="29" height="14" viewBox="0 0 29 14" fill="none" xmlns="http://www.w3.org/2000/svg">
<path opacity="0.35" d="M4.60705 0.8068H22.1056C24.0796 0.8068 25.6799 2.40706 25.6799 4.38109V9.52771C25.6799 11.5017 24.0796 13.102 22.1056 13.102H4.60705C2.63302 13.102 1.03276 11.5017 1.03276 9.52772V4.38109C1.03276 2.40707 2.63302 0.8068 4.60705 0.8068Z" fill="black" stroke="black" stroke-width="1.08603"/>
<path opacity="0.4" d="M27.2522 5.41041V9.75452C28.1262 9.3866 28.6945 8.53071 28.6945 7.58247C28.6945 6.63422 28.1262 5.77833 27.2522 5.41041" fill="black"/>
<path d="M2.5484 4.38109C2.5484 3.24413 3.47009 2.32244 4.60705 2.32244H22.1056C23.2425 2.32244 24.1642 3.24413 24.1642 4.38109V9.52771C24.1642 10.6647 23.2425 11.5864 22.1056 11.5864H4.60705C3.47009 11.5864 2.5484 10.6647 2.5484 9.52772V4.38109Z" fill="black"/>
</svg>
