<svg width="34" height="24" viewBox="0 0 34 24" fill="none" xmlns="http://www.w3.org/2000/svg">
<path d="M5.62783 5.24629C6.23679 5.25043 6.82919 5.35814 7.40502 5.56941C7.98499 5.77655 8.50696 6.11624 8.97094 6.5885C9.43492 7.05662 9.80361 7.68423 10.077 8.47134C10.3504 9.25844 10.4871 10.232 10.4871 11.3919C10.4913 12.4856 10.3753 13.4632 10.1392 14.3249C9.90718 15.1824 9.5737 15.9074 9.13872 16.4998C8.70374 17.0922 8.1797 17.5437 7.56658 17.8544C6.95347 18.1651 6.26372 18.3205 5.49733 18.3205C4.69366 18.3205 3.98112 18.1631 3.35973 17.8482C2.74247 17.5334 2.24328 17.1025 1.86216 16.5557C1.48104 16.0089 1.24698 15.3833 1.15998 14.6791H3.42808C3.54408 15.1845 3.78021 15.5863 4.13647 15.8846C4.49688 16.1787 4.9505 16.3258 5.49733 16.3258C6.37972 16.3258 7.05911 15.9426 7.53551 15.1762C8.01192 14.4098 8.25012 13.3452 8.25012 11.9822H8.16312C7.96014 12.3468 7.69708 12.6616 7.37395 12.9268C7.05082 13.1877 6.6842 13.3887 6.27408 13.5295C5.8681 13.6704 5.43726 13.7408 4.98157 13.7408C4.2359 13.7408 3.56479 13.5626 2.96825 13.2064C2.37585 12.8501 1.90566 12.3613 1.55768 11.7399C1.21384 11.1185 1.03985 10.408 1.0357 9.60849C1.0357 8.77996 1.22627 8.03636 1.60739 7.37768C1.99265 6.71485 2.52913 6.19288 3.21681 5.81176C3.90449 5.42649 4.70816 5.238 5.62783 5.24629ZM5.63404 7.11048C5.18663 7.11048 4.78273 7.22026 4.42232 7.43982C4.06605 7.65524 3.78435 7.94936 3.57722 8.3222C3.37423 8.6909 3.27273 9.10309 3.27273 9.55878C3.27687 10.0103 3.37837 10.4205 3.57722 10.7891C3.78021 11.1578 4.05569 11.4499 4.40367 11.6653C4.7558 11.8807 5.15764 11.9884 5.60918 11.9884C5.94474 11.9884 6.25751 11.9242 6.54749 11.7958C6.83748 11.6674 7.09018 11.4893 7.3056 11.2614C7.52516 11.0294 7.69501 10.7664 7.81514 10.4722C7.93942 10.1781 7.99949 9.86741 7.99535 9.54014C7.99535 9.10516 7.89178 8.70332 7.68465 8.33463C7.48166 7.96593 7.20203 7.66973 6.84576 7.44603C6.49364 7.22233 6.08973 7.11048 5.63404 7.11048ZM13.1435 16.6178C12.7665 16.6178 12.4434 16.4853 12.1741 16.2202C11.9049 15.9509 11.7723 15.6278 11.7764 15.2508C11.7723 14.8779 11.9049 14.559 12.1741 14.2938C12.4434 14.0287 12.7665 13.8961 13.1435 13.8961C13.5081 13.8961 13.825 14.0287 14.0942 14.2938C14.3677 14.559 14.5064 14.8779 14.5106 15.2508C14.5064 15.5035 14.4402 15.7334 14.3117 15.9405C14.1875 16.1477 14.0218 16.3134 13.8146 16.4376C13.6116 16.5578 13.3879 16.6178 13.1435 16.6178ZM13.1435 10.3107C12.7665 10.3107 12.4434 10.1781 12.1741 9.91298C11.9049 9.6437 11.7723 9.32058 11.7764 8.9436C11.7723 8.57076 11.9049 8.25178 12.1741 7.98665C12.4434 7.71737 12.7665 7.58274 13.1435 7.58274C13.5081 7.58274 13.825 7.71737 14.0942 7.98665C14.3677 8.25178 14.5064 8.57076 14.5106 8.9436C14.5064 9.19216 14.4402 9.42 14.3117 9.62713C14.1875 9.83427 14.0218 9.99997 13.8146 10.1243C13.6116 10.2485 13.3879 10.3107 13.1435 10.3107ZM15.7548 15.7852V13.9521L21.1548 5.42028H22.6834V8.03014H21.7513L18.1161 13.7905V13.8899H25.6537V15.7852H15.7548ZM21.8259 18.1465V15.2259L21.8507 14.4057V5.42028H24.0256V18.1465H21.8259ZM31.8209 5.42028V18.1465H29.5155V7.66352H29.441L26.4645 9.56499V7.45225L29.6274 5.42028H31.8209Z" fill="black"/>
</svg>
