<svg width="88" height="44" viewBox="0 0 88 44" fill="none" xmlns="http://www.w3.org/2000/svg">
<rect x="1.5" y="1.5" width="85" height="41" rx="20.5" fill="#E8D9C2"/>
<rect x="1.5" y="1.5" width="85" height="41" rx="20.5" stroke="white" stroke-width="3"/>
<path d="M21.04 28H18.304L13.728 21.072V28H10.992V16.768H13.728L18.304 23.728V16.768H21.04V28ZM32.1433 19.072L26.5433 32.24H23.5993L25.6473 27.696L22.0152 19.072H25.0713L27.1353 24.656L29.1833 19.072H32.1433ZM41.5486 23.392C41.5486 23.648 41.5326 23.9147 41.5006 24.192H35.3086C35.3513 24.7467 35.5273 25.1733 35.8366 25.472C36.1566 25.76 36.546 25.904 37.0046 25.904C37.6873 25.904 38.162 25.616 38.4286 25.04H41.3406C41.1913 25.6267 40.9193 26.1547 40.5246 26.624C40.1406 27.0933 39.6553 27.4613 39.0686 27.728C38.482 27.9947 37.826 28.128 37.1006 28.128C36.226 28.128 35.4473 27.9413 34.7646 27.568C34.082 27.1947 33.5486 26.6613 33.1646 25.968C32.7806 25.2747 32.5886 24.464 32.5886 23.536C32.5886 22.608 32.7753 21.7973 33.1486 21.104C33.5326 20.4107 34.066 19.8773 34.7486 19.504C35.4313 19.1307 36.2153 18.944 37.1006 18.944C37.9646 18.944 38.7326 19.1253 39.4046 19.488C40.0766 19.8507 40.5993 20.368 40.9726 21.04C41.3566 21.712 41.5486 22.496 41.5486 23.392ZM38.7486 22.672C38.7486 22.2027 38.5886 21.8293 38.2686 21.552C37.9486 21.2747 37.5486 21.136 37.0686 21.136C36.61 21.136 36.2206 21.2693 35.9006 21.536C35.5913 21.8027 35.3993 22.1813 35.3246 22.672H38.7486ZM53.4053 28.128C52.6266 28.128 51.9333 27.9947 51.3253 27.728C50.7173 27.4613 50.2373 27.0987 49.8853 26.64C49.5333 26.1707 49.3359 25.648 49.2933 25.072H51.9973C52.0293 25.3813 52.1733 25.632 52.4293 25.824C52.6853 26.016 52.9999 26.112 53.3733 26.112C53.7146 26.112 53.9759 26.048 54.1573 25.92C54.3493 25.7813 54.4453 25.6053 54.4453 25.392C54.4453 25.136 54.3119 24.9493 54.0453 24.832C53.7786 24.704 53.3466 24.5653 52.7493 24.416C52.1093 24.2667 51.5759 24.112 51.1493 23.952C50.7226 23.7813 50.3546 23.52 50.0453 23.168C49.7359 22.8053 49.5813 22.32 49.5813 21.712C49.5813 21.2 49.7199 20.736 49.9973 20.32C50.2853 19.8933 50.7013 19.5573 51.2453 19.312C51.7999 19.0667 52.4559 18.944 53.2133 18.944C54.3333 18.944 55.2133 19.2213 55.8533 19.776C56.5039 20.3307 56.8773 21.0667 56.9733 21.984H54.4453C54.4026 21.6747 54.2639 21.4293 54.0293 21.248C53.8053 21.0667 53.5066 20.976 53.1333 20.976C52.8133 20.976 52.5679 21.04 52.3973 21.168C52.2266 21.2853 52.1413 21.4507 52.1413 21.664C52.1413 21.92 52.2746 22.112 52.5413 22.24C52.8186 22.368 53.2453 22.496 53.8213 22.624C54.4826 22.7947 55.0213 22.9653 55.4373 23.136C55.8533 23.296 56.2159 23.5627 56.5253 23.936C56.8453 24.2987 57.0106 24.7893 57.0213 25.408C57.0213 25.9307 56.8719 26.4 56.5733 26.816C56.2853 27.2213 55.8639 27.5413 55.3093 27.776C54.7653 28.0107 54.1306 28.128 53.4053 28.128ZM61.4311 20.336C61.6978 19.92 62.0658 19.584 62.5351 19.328C63.0045 19.072 63.5538 18.944 64.1831 18.944C64.9191 18.944 65.5858 19.1307 66.1831 19.504C66.7805 19.8773 67.2498 20.4107 67.5911 21.104C67.9431 21.7973 68.1191 22.6027 68.1191 23.52C68.1191 24.4373 67.9431 25.248 67.5911 25.952C67.2498 26.6453 66.7805 27.184 66.1831 27.568C65.5858 27.9413 64.9191 28.128 64.1831 28.128C63.5645 28.128 63.0151 28 62.5351 27.744C62.0658 27.488 61.6978 27.1573 61.4311 26.752V32.256H58.6951V19.072H61.4311V20.336ZM65.3351 23.52C65.3351 22.8373 65.1431 22.304 64.7591 21.92C64.3858 21.5253 63.9218 21.328 63.3671 21.328C62.8231 21.328 62.3591 21.5253 61.9751 21.92C61.6018 22.3147 61.4151 22.8533 61.4151 23.536C61.4151 24.2187 61.6018 24.7573 61.9751 25.152C62.3591 25.5467 62.8231 25.744 63.3671 25.744C63.9111 25.744 64.3751 25.5467 64.7591 25.152C65.1431 24.7467 65.3351 24.2027 65.3351 23.52ZM70.9305 18.144C70.4505 18.144 70.0558 18.0053 69.7465 17.728C69.4478 17.44 69.2985 17.088 69.2985 16.672C69.2985 16.2453 69.4478 15.8933 69.7465 15.616C70.0558 15.328 70.4505 15.184 70.9305 15.184C71.3998 15.184 71.7838 15.328 72.0825 15.616C72.3918 15.8933 72.5465 16.2453 72.5465 16.672C72.5465 17.088 72.3918 17.44 72.0825 17.728C71.7838 18.0053 71.3998 18.144 70.9305 18.144ZM72.2905 19.072V28H69.5545V19.072H72.2905ZM77.0093 16.16V28H74.2733V16.16H77.0093Z" fill="black"/>
</svg>
