<svg width="16" height="16" viewBox="0 0 16 16" fill="none" xmlns="http://www.w3.org/2000/svg">
<path d="M12.75 13.6L8.76669 9.61666C8.43336 9.8611 8.06786 10.0528 7.67019 10.1917C7.27252 10.3305 6.8493 10.4 6.40052 10.4C5.28908 10.4 4.34447 10.0111 3.56669 9.23333C2.78891 8.45555 2.40002 7.5111 2.40002 6.39999C2.40002 5.28888 2.78891 4.34444 3.56669 3.56666C4.34447 2.78888 5.28891 2.39999 6.40002 2.39999C7.51114 2.39999 8.45558 2.78888 9.23336 3.56666C10.0111 4.34444 10.4 5.28905 10.4 6.40049C10.4 6.84927 10.3306 7.27249 10.1917 7.67016C10.0528 8.06783 9.86114 8.43333 9.61669 8.76666L13.6 12.75L12.75 13.6ZM6.40002 9.19999C7.1778 9.19999 7.83891 8.92777 8.38336 8.38333C8.9278 7.83888 9.20002 7.17777 9.20002 6.39999C9.20002 5.62222 8.9278 4.9611 8.38336 4.41666C7.83891 3.87222 7.1778 3.59999 6.40002 3.59999C5.62225 3.59999 4.96114 3.87222 4.41669 4.41666C3.87225 4.9611 3.60002 5.62222 3.60002 6.39999C3.60002 7.17777 3.87225 7.83888 4.41669 8.38333C4.96114 8.92777 5.62225 9.19999 6.40002 9.19999Z" fill="black"/>
</svg>
