<svg width="19" height="13" viewBox="0 0 19 13" fill="none" xmlns="http://www.w3.org/2000/svg">
<path d="M10.3753 3.35176C10.3753 2.78328 10.8362 2.32244 11.4047 2.32244H12.434C13.0025 2.32244 13.4633 2.78328 13.4633 3.35176V11.5864C13.4633 12.1548 13.0025 12.6157 12.434 12.6157H11.4047C10.8362 12.6157 10.3753 12.1548 10.3753 11.5864V3.35176Z" fill="black"/>
<path d="M15.522 1.29311C15.522 0.724631 15.9828 0.263786 16.5513 0.263786H17.5806C18.1491 0.263786 18.61 0.724631 18.61 1.29311V11.5864C18.61 12.1548 18.1491 12.6157 17.5806 12.6157H16.5513C15.9828 12.6157 15.522 12.1548 15.522 11.5864V1.29311Z" fill="black"/>
<path d="M5.22872 6.9544C5.22872 6.38592 5.68956 5.92508 6.25805 5.92508H7.28737C7.85585 5.92508 8.3167 6.38592 8.3167 6.9544V11.5864C8.3167 12.1548 7.85585 12.6157 7.28737 12.6157H6.25805C5.68956 12.6157 5.22872 12.1548 5.22872 11.5864V6.9544Z" fill="black"/>
<path d="M0.0820923 9.52772C0.0820923 8.95923 0.542937 8.49839 1.11142 8.49839H2.14074C2.70922 8.49839 3.17007 8.95923 3.17007 9.52772V11.5864C3.17007 12.1548 2.70922 12.6157 2.14074 12.6157H1.11142C0.542937 12.6157 0.0820923 12.1548 0.0820923 11.5864V9.52772Z" fill="black"/>
</svg>
