<svg width="301" height="23" viewBox="0 0 301 23" fill="none" xmlns="http://www.w3.org/2000/svg">
<path opacity="0.35" d="M276.607 4.8068H294.106C296.08 4.8068 297.68 6.40706 297.68 8.38109V13.5277C297.68 15.5017 296.08 17.102 294.106 17.102H276.607C274.633 17.102 273.033 15.5017 273.033 13.5277V8.38109C273.033 6.40707 274.633 4.8068 276.607 4.8068Z" fill="black" stroke="black" stroke-width="1.08603"/>
<path opacity="0.4" d="M299.252 9.41041V13.7545C300.126 13.3866 300.694 12.5307 300.694 11.5825C300.694 10.6342 300.126 9.77833 299.252 9.41041" fill="black"/>
<path d="M274.548 8.38109C274.548 7.24413 275.47 6.32244 276.607 6.32244H294.106C295.243 6.32244 296.164 7.24413 296.164 8.38109V13.5277C296.164 14.6647 295.243 15.5864 294.106 15.5864H276.607C275.47 15.5864 274.548 14.6647 274.548 13.5277V8.38109Z" fill="black"/>
<path fill-rule="evenodd" clip-rule="evenodd" d="M257.565 6.92719C260.104 6.92731 262.546 7.92309 264.386 9.70873C264.524 9.84659 264.746 9.84485 264.882 9.70483L266.207 8.34038C266.276 8.26936 266.314 8.17317 266.314 8.07308C266.313 7.97299 266.274 7.87726 266.204 7.80707C261.374 3.08269 253.755 3.08269 248.926 7.80707C248.856 7.87721 248.816 7.97291 248.815 8.073C248.815 8.17309 248.853 8.26931 248.922 8.34038L250.247 9.70483C250.383 9.84506 250.605 9.8468 250.743 9.70873C252.584 7.92297 255.026 6.92719 257.565 6.92719ZM257.601 11.1318C258.996 11.1317 260.342 11.661 261.376 12.6167C261.515 12.7524 261.736 12.7494 261.872 12.6101L263.195 11.2456C263.265 11.1741 263.303 11.077 263.302 10.9761C263.301 10.8752 263.261 10.7789 263.19 10.7088C260.041 7.71906 255.165 7.71906 252.016 10.7088C251.945 10.7789 251.904 10.8753 251.903 10.9762C251.902 11.0771 251.941 11.1742 252.011 11.2456L253.333 12.6101C253.47 12.7494 253.69 12.7524 253.83 12.6167C254.863 11.6616 256.207 11.1324 257.601 11.1318ZM260.292 13.8804C260.294 13.9816 260.255 14.0792 260.184 14.15L257.896 16.5074C257.828 16.5767 257.737 16.6157 257.642 16.6157C257.546 16.6157 257.455 16.5767 257.388 16.5074L255.099 14.15C255.028 14.0791 254.989 13.9815 254.991 13.8804C254.993 13.7792 255.036 13.6834 255.11 13.6156C256.571 12.3538 258.712 12.3538 260.173 13.6156C260.247 13.6834 260.29 13.7793 260.292 13.8804Z" fill="black"/>
<path d="M233.375 7.35176C233.375 6.78328 233.836 6.32244 234.405 6.32244H235.434C236.002 6.32244 236.463 6.78328 236.463 7.35176V15.5864C236.463 16.1548 236.002 16.6157 235.434 16.6157H234.405C233.836 16.6157 233.375 16.1548 233.375 15.5864V7.35176Z" fill="black"/>
<path d="M238.522 5.29311C238.522 4.72463 238.983 4.26379 239.551 4.26379H240.581C241.149 4.26379 241.61 4.72463 241.61 5.29311V15.5864C241.61 16.1548 241.149 16.6157 240.581 16.6157H239.551C238.983 16.6157 238.522 16.1548 238.522 15.5864V5.29311Z" fill="black"/>
<path d="M228.229 10.9544C228.229 10.3859 228.69 9.92508 229.258 9.92508H230.287C230.856 9.92508 231.317 10.3859 231.317 10.9544V15.5864C231.317 16.1548 230.856 16.6157 230.287 16.6157H229.258C228.69 16.6157 228.229 16.1548 228.229 15.5864V10.9544Z" fill="black"/>
<path d="M223.082 13.5277C223.082 12.9592 223.543 12.4984 224.111 12.4984H225.141C225.709 12.4984 226.17 12.9592 226.17 13.5277V15.5864C226.17 16.1548 225.709 16.6157 225.141 16.6157H224.111C223.543 16.6157 223.082 16.1548 223.082 15.5864V13.5277Z" fill="black"/>
<path d="M6.62783 5.24629C7.23679 5.25043 7.82919 5.35814 8.40502 5.56941C8.98499 5.77655 9.50696 6.11624 9.97094 6.5885C10.4349 7.05662 10.8036 7.68423 11.077 8.47134C11.3504 9.25844 11.4871 10.232 11.4871 11.3919C11.4913 12.4856 11.3753 13.4632 11.1392 14.3249C10.9072 15.1824 10.5737 15.9074 10.1387 16.4998C9.70374 17.0922 9.1797 17.5437 8.56658 17.8544C7.95347 18.1651 7.26372 18.3205 6.49733 18.3205C5.69366 18.3205 4.98112 18.1631 4.35973 17.8482C3.74247 17.5334 3.24328 17.1025 2.86216 16.5557C2.48104 16.0089 2.24698 15.3833 2.15998 14.6791H4.42808C4.54408 15.1845 4.78021 15.5863 5.13647 15.8846C5.49688 16.1787 5.9505 16.3258 6.49733 16.3258C7.37972 16.3258 8.05911 15.9426 8.53551 15.1762C9.01192 14.4098 9.25012 13.3452 9.25012 11.9822H9.16312C8.96014 12.3468 8.69708 12.6616 8.37395 12.9268C8.05082 13.1877 7.6842 13.3887 7.27408 13.5295C6.8681 13.6704 6.43726 13.7408 5.98157 13.7408C5.2359 13.7408 4.56479 13.5626 3.96825 13.2064C3.37585 12.8501 2.90566 12.3613 2.55768 11.7399C2.21384 11.1185 2.03985 10.408 2.0357 9.60849C2.0357 8.77996 2.22627 8.03636 2.60739 7.37768C2.99265 6.71485 3.52913 6.19288 4.21681 5.81176C4.90449 5.42649 5.70816 5.238 6.62783 5.24629ZM6.63404 7.11048C6.18663 7.11048 5.78273 7.22026 5.42232 7.43982C5.06605 7.65524 4.78435 7.94936 4.57722 8.3222C4.37423 8.6909 4.27273 9.10309 4.27273 9.55878C4.27687 10.0103 4.37837 10.4205 4.57722 10.7891C4.78021 11.1578 5.05569 11.4499 5.40367 11.6653C5.7558 11.8807 6.15764 11.9884 6.60918 11.9884C6.94474 11.9884 7.25751 11.9242 7.54749 11.7958C7.83748 11.6674 8.09018 11.4893 8.3056 11.2614C8.52516 11.0294 8.69501 10.7664 8.81514 10.4722C8.93942 10.1781 8.99949 9.86741 8.99535 9.54014C8.99535 9.10516 8.89178 8.70332 8.68465 8.33463C8.48166 7.96593 8.20203 7.66973 7.84576 7.44603C7.49364 7.22233 7.08973 7.11048 6.63404 7.11048ZM14.1435 16.6178C13.7665 16.6178 13.4434 16.4853 13.1741 16.2202C12.9049 15.9509 12.7723 15.6278 12.7764 15.2508C12.7723 14.8779 12.9049 14.559 13.1741 14.2938C13.4434 14.0287 13.7665 13.8961 14.1435 13.8961C14.5081 13.8961 14.825 14.0287 15.0942 14.2938C15.3677 14.559 15.5064 14.8779 15.5106 15.2508C15.5064 15.5035 15.4402 15.7334 15.3117 15.9405C15.1875 16.1477 15.0218 16.3134 14.8146 16.4376C14.6116 16.5578 14.3879 16.6178 14.1435 16.6178ZM14.1435 10.3107C13.7665 10.3107 13.4434 10.1781 13.1741 9.91298C12.9049 9.6437 12.7723 9.32058 12.7764 8.9436C12.7723 8.57076 12.9049 8.25178 13.1741 7.98665C13.4434 7.71737 13.7665 7.58274 14.1435 7.58274C14.5081 7.58274 14.825 7.71737 15.0942 7.98665C15.3677 8.25178 15.5064 8.57076 15.5106 8.9436C15.5064 9.19216 15.4402 9.42 15.3117 9.62713C15.1875 9.83427 15.0218 9.99997 14.8146 10.1243C14.6116 10.2485 14.3879 10.3107 14.1435 10.3107ZM16.7548 15.7852V13.9521L22.1548 5.42028H23.6834V8.03014H22.7513L19.1161 13.7905V13.8899H26.6537V15.7852H16.7548ZM22.8259 18.1465V15.2259L22.8507 14.4057V5.42028H25.0256V18.1465H22.8259ZM32.8209 5.42028V18.1465H30.5155V7.66352H30.441L27.4645 9.56499V7.45225L30.6274 5.42028H32.8209Z" fill="black"/>
</svg>
