<svg width="19" height="13" viewBox="0 0 19 13" fill="none" xmlns="http://www.w3.org/2000/svg">
<path fill-rule="evenodd" clip-rule="evenodd" d="M9.56496 2.92719C12.1039 2.92731 14.5457 3.92309 16.3857 5.70873C16.5243 5.84659 16.7457 5.84485 16.8822 5.70483L18.2067 4.34038C18.2758 4.26936 18.3143 4.17317 18.3137 4.07308C18.3132 3.97299 18.2735 3.87726 18.2036 3.80707C13.3741 -0.917309 5.75503 -0.917309 0.925522 3.80707C0.855563 3.87721 0.815869 3.97291 0.815224 4.073C0.814579 4.17309 0.853036 4.26931 0.922084 4.34038L2.24697 5.70483C2.38335 5.84506 2.60499 5.8468 2.74347 5.70873C4.58374 3.92297 7.02582 2.92719 9.56496 2.92719ZM9.60145 7.13181C10.9964 7.13172 12.3416 7.66097 13.3756 8.61673C13.5154 8.75237 13.7358 8.74943 13.8721 8.6101L15.1951 7.24564C15.2647 7.17407 15.3034 7.07698 15.3024 6.9761C15.3014 6.87521 15.2608 6.77894 15.1897 6.70883C12.0409 3.71906 7.16464 3.71906 4.01585 6.70883C3.94472 6.77894 3.90414 6.87525 3.90321 6.97618C3.90228 7.0771 3.94107 7.17418 4.01088 7.24564L5.33348 8.6101C5.46981 8.74943 5.69012 8.75237 5.82998 8.61673C6.86331 7.66161 8.20741 7.1324 9.60145 7.13181ZM12.2917 9.88044C12.2938 9.98161 12.2548 10.0792 12.184 10.15L9.89557 12.5074C9.82848 12.5767 9.73702 12.6157 9.64159 12.6157C9.54616 12.6157 9.4547 12.5767 9.38761 12.5074L7.09876 10.15C7.02805 10.0791 6.98915 9.98153 6.99125 9.88035C6.99335 9.77918 7.03625 9.68338 7.10983 9.61556C8.57134 8.35377 10.7118 8.35377 12.1733 9.61556C12.2469 9.68343 12.2897 9.77927 12.2917 9.88044Z" fill="black"/>
</svg>
